<svg xmlns="http://www.w3.org/2000/svg" width="103" height="23" viewBox="0 0 103 23">
    <path fill="#FFF" fill-rule="evenodd" d="M20.69 22h-3.36l-.27-2.43c-.96 1.44-3.06 2.88-6.27 2.88-5.73 0-10.62-4.2-10.62-11.07S5.3.28 11.06.28c5.58 0 8.67 3.27 9.72 6.54l-3.96 1.41c-.54-1.89-2.31-4.08-5.76-4.08-3.21 0-6.69 2.19-6.69 7.23 0 4.8 3.15 7.29 6.72 7.29 3.93 0 5.46-2.64 5.7-4.14h-6.72v-3.6h10.62V22zm6.731-10.65c0 4.8 3.36 7.08 6.63 7.08 3.3 0 6.66-2.28 6.66-7.08 0-4.8-3.36-7.08-6.66-7.08-3.27 0-6.63 2.28-6.63 7.08zm-4.29.03c0-6.87 5.16-11.1 10.92-11.1 5.79 0 10.95 4.23 10.95 11.1 0 6.84-5.16 11.07-10.95 11.07-5.76 0-10.92-4.23-10.92-11.07zm28.032-.03c0 4.8 3.36 7.08 6.63 7.08 3.3 0 6.66-2.28 6.66-7.08 0-4.8-3.36-7.08-6.66-7.08-3.27 0-6.63 2.28-6.63 7.08zm-4.29.03c0-6.87 5.16-11.1 10.92-11.1 5.79 0 10.95 4.23 10.95 11.1 0 6.84-5.16 11.07-10.95 11.07-5.76 0-10.92-4.23-10.92-11.07zm39.25-5.58l-3.72 1.14c-.21-1.17-1.17-3-3.87-3-2.01 0-3.33 1.29-3.33 2.7 0 1.17.75 2.1 2.31 2.4l2.97.57c3.87.75 5.94 3.27 5.94 6.27 0 3.27-2.73 6.57-7.68 6.57-5.64 0-8.13-3.63-8.46-6.66l3.84-1.02c.18 2.1 1.65 3.99 4.65 3.99 2.22 0 3.45-1.11 3.45-2.61 0-1.23-.93-2.19-2.58-2.52l-2.97-.6c-3.39-.69-5.58-2.88-5.58-6.09 0-3.78 3.39-6.66 7.41-6.66 5.16 0 7.14 3.12 7.62 5.52zM102.786 22h-13.32V.73h13.32v3.9h-9.18v4.86h8.31v3.69h-8.31v4.92h9.18V22z"/>
</svg>
