<svg xmlns="http://www.w3.org/2000/svg" width="371" height="38" viewBox="0 0 371 38">
    <path fill="#222" fill-rule="evenodd" d="M27.7 10.25l-7.1 2C20.35 10.6 19 7.8 14.7 7.8c-2.95 0-4.85 1.85-4.85 3.8 0 1.7 1.05 2.95 3.5 3.4l4.75.9c6.75 1.25 10.25 5.6 10.25 10.65 0 5.55-4.65 11.2-13.1 11.2-9.8 0-14-6.35-14.5-11.35L8 24.65c.3 3.25 2.5 6.1 7.35 6.1 3.1 0 5-1.5 5-3.7 0-1.8-1.45-3.1-3.8-3.55l-4.85-.9c-6-1.15-9.65-5.15-9.65-10.4C2.05 5.5 7.95.8 14.75.8c8.85 0 12.2 5.3 12.95 9.45zM55.25 37h-22.5V1.55H55.2V9H40.65v6.75h13.2v6.95h-13.2v6.8h14.6V37zm22.7 0L71.6 23.8h-2.8V37h-7.9V1.55h14.05c7 0 11.5 4.8 11.5 11.1 0 4.8-2.65 8.45-7 10L86.65 37h-8.7zM68.8 17h4.65c3.25 0 5-1.8 5-4.3 0-2.65-1.75-4.3-5-4.3H68.8V17zm36.15 9.5l8.45-24.95h8.4L108.85 37h-8.15l-13-35.45h8.7l8.55 24.95zm28.2 10.5h-8V1.55h8V37zm23 .75c-10.2 0-18.4-7.35-18.4-18.4 0-11.05 8.4-18.55 18.3-18.55 10.65 0 15.35 6.85 16.5 11.95l-7.45 2.35c-.55-2.45-2.8-6.6-9.05-6.6-4.75 0-10.1 3.4-10.1 10.85 0 6.65 4.9 10.5 10.2 10.5 6.15 0 8.6-4.1 9.3-6.65l7.55 2.15c-1.15 4.9-5.85 12.4-16.85 12.4zM199.9 37h-22.5V1.55h22.45V9H185.3v6.75h13.2v6.95h-13.2v6.8h14.6V37zm39.45 0h-22.5V1.55h22.45V9h-14.55v6.75h13.2v6.95h-13.2v6.8h14.6V37zm22.7 0l-6.35-13.2h-2.8V37H245V1.55h14.05c7 0 11.5 4.8 11.5 11.1 0 4.8-2.65 8.45-7 10l7.2 14.35h-8.7zm-9.15-20h4.65c3.25 0 5-1.8 5-4.3 0-2.65-1.75-4.3-5-4.3h-4.65V17zm39.55 20l-6.35-13.2h-2.8V37h-7.9V1.55h14.05c7 0 11.5 4.8 11.5 11.1 0 4.8-2.65 8.45-7 10l7.2 14.35h-8.7zm-9.15-20h4.65c3.25 0 5-1.8 5-4.3 0-2.65-1.75-4.3-5-4.3h-4.65V17zm28.4 2.25c0 7.4 5.3 10.7 10.25 10.7 4.9 0 10.2-3.3 10.2-10.7 0-7.4-5.3-10.75-10.2-10.75-4.95 0-10.25 3.35-10.25 10.75zm-8.2.05c0-11.25 8.45-18.5 18.45-18.5 9.95 0 18.4 7.25 18.4 18.5 0 11.2-8.45 18.45-18.4 18.45-10 0-18.45-7.25-18.45-18.45zM362.05 37l-6.35-13.2h-2.8V37H345V1.55h14.05c7 0 11.5 4.8 11.5 11.1 0 4.8-2.65 8.45-7 10l7.2 14.35h-8.7zm-9.15-20h4.65c3.25 0 5-1.8 5-4.3 0-2.65-1.75-4.3-5-4.3h-4.65V17z"/>
</svg>
