<?xml version="1.0" encoding="UTF-8"?>
<svg width="128px" height="128px" viewBox="0 0 128 128" version="1.1" xmlns="http://www.w3.org/2000/svg" xmlns:xlink="http://www.w3.org/1999/xlink">
    <title>icon-google</title>
    <g id="Page-1" stroke="none" stroke-width="1" fill="none" fill-rule="evenodd">
        <g id="OAuth-SYMBOL" transform="translate(-414, -176)">
            <g id="icon-google" transform="translate(414, 176)">
                <path d="M41.0221632,-1.81366828e-15 L86.9778368,0 C101.242137,0 106.414716,1.48520978 111.629531,4.27412326 C116.844346,7.06303674 120.936963,11.1556539 123.725877,16.3704687 C126.51479,21.5852836 128,26.7578634 128,41.0221632 L128,86.9778368 C128,101.242137 126.51479,106.414716 123.725877,111.629531 C120.936963,116.844346 116.844346,120.936963 111.629531,123.725877 C106.414716,126.51479 101.242137,128 86.9778368,128 L41.0221632,128 C26.7578634,128 21.5852836,126.51479 16.3704687,123.725877 C11.1556539,120.936963 7.06303674,116.844346 4.27412326,111.629531 C1.48520978,106.414716 0,101.242137 0,86.9778368 L0,41.0221632 C0,26.7578634 1.48520978,21.5852836 4.27412326,16.3704687 C7.06303674,11.1556539 11.1556539,7.06303674 16.3704687,4.27412326 C21.5852836,1.48520978 26.7578634,1.0537935e-15 41.0221632,-1.81366828e-15 Z" id="Rectangle-Copy-2" fill="#FFFFFF"></path>
                <g id="symbol" transform="translate(29, 28)" fill-rule="nonzero">
                    <path d="M70,36.924594 C70,34.5330626 69.7678571,32.0643852 69.3809524,29.75 L35.875,29.75 L35.875,43.4048724 L55.0654762,43.4048724 C54.2916667,47.8022042 51.7380952,51.6595128 47.9464286,54.1281903 L59.3988095,63 C66.1309524,56.7511601 70,47.6479118 70,36.924594 L70,36.924594 Z" id="Path" fill="#4280EF"></path>
                    <path d="M35.6568627,71.75 C45.3823529,71.75 53.5392157,68.5503378 59.5,63.0875 L47.8921569,54.1908784 C44.6764706,56.3760135 40.5196078,57.6246622 35.6568627,57.6246622 C26.245098,57.6246622 18.3235294,51.3033784 15.4215686,42.875 L3.5,52.0057432 C9.61764706,64.102027 22.0098039,71.75 35.6568627,71.75 Z" id="Path" fill="#34A353"></path>
                    <path d="M15.75,42.3525485 C14.25934,37.873483 14.25934,33.001517 15.75,28.5224515 L3.8247198,19.25 C-1.2749066,29.4654126 -1.2749066,41.4881675 3.8247198,51.625 L15.75,42.3525485 Z" id="Path" fill="#F6B704"></path>
                    <path d="M35.5223152,14.1657863 C40.5990237,14.0879598 45.597629,16.033623 49.2684798,19.5358167 L59.5,9.26271507 C53.0174338,3.19224592 44.4260809,-0.0764682303 35.5223152,0.00135829716 C21.932357,0.00135829716 9.59205021,7.62835799 3.5,19.6914698 L15.3716876,28.875 C18.2615063,20.3919085 26.1499303,14.1657863 35.5223152,14.1657863 Z" id="Path" fill="#E54335"></path>
                </g>
            </g>
        </g>
    </g>
</svg>