<?xml version="1.0" encoding="UTF-8"?>
<svg width="128px" height="128px" viewBox="0 0 128 128" version="1.1" xmlns="http://www.w3.org/2000/svg" xmlns:xlink="http://www.w3.org/1999/xlink">
    <title>icon-github</title>
    <g id="Page-1" stroke="none" stroke-width="1" fill="none" fill-rule="evenodd">
        <g id="OAuth-SYMBOL" transform="translate(-256, -176)">
            <g id="icon-github" transform="translate(256, 176)">
                <path d="M41.0221632,-1.81366828e-15 L86.9778368,0 C101.242137,0 106.414716,1.48520978 111.629531,4.27412326 C116.844346,7.06303674 120.936963,11.1556539 123.725877,16.3704687 C126.51479,21.5852836 128,26.7578634 128,41.0221632 L128,86.9778368 C128,101.242137 126.51479,106.414716 123.725877,111.629531 C120.936963,116.844346 116.844346,120.936963 111.629531,123.725877 C106.414716,126.51479 101.242137,128 86.9778368,128 L41.0221632,128 C26.7578634,128 21.5852836,126.51479 16.3704687,123.725877 C11.1556539,120.936963 7.06303674,116.844346 4.27412326,111.629531 C1.48520978,106.414716 0,101.242137 0,86.9778368 L0,41.0221632 C0,26.7578634 1.48520978,21.5852836 4.27412326,16.3704687 C7.06303674,11.1556539 11.1556539,7.06303674 16.3704687,4.27412326 C21.5852836,1.48520978 26.7578634,1.0537935e-15 41.0221632,-1.81366828e-15 Z" id="Rectangle-Copy" fill="#24292F"></path>
                <path d="M64.0289608,29 C44.6588503,29 29,44.8410796 29,64.4386552 C29,80.1040428 39.0331651,93.3644665 52.9518245,98.0577464 C54.6920154,98.4105704 55.3294401,97.2952144 55.3294401,96.3569905 C55.3294401,95.5354145 55.2720791,92.7193026 55.2720791,89.7851026 C45.5278703,91.8977266 43.498723,85.5605747 43.498723,85.5605747 C41.9327663,81.4534148 39.6125117,80.3978228 39.6125117,80.3978228 C36.4232372,78.2268749 39.844824,78.2268749 39.844824,78.2268749 C43.3825669,78.4616109 45.238914,81.8645628 45.238914,81.8645628 C48.3701104,87.2620506 53.415732,85.7369867 55.4455963,84.7980427 C55.7352696,82.5097268 56.6638016,80.9256188 57.6496947,80.0457188 C49.8779891,79.2241429 41.7011711,76.1732949 41.7011711,62.5607672 C41.7011711,58.6883433 43.0921766,55.5201274 45.296275,53.0561195 C44.9485237,52.1762195 43.7303183,48.5378115 45.6447434,43.6681197 C45.6447434,43.6681197 48.6024227,42.7291757 55.2713621,47.3058076 C58.1265722,46.5300718 61.0711041,46.1354501 64.0289608,46.1321276 C66.98664,46.1321276 70.0016804,46.5432756 72.7858425,47.3058076 C79.4554988,42.7291757 82.4131781,43.6681197 82.4131781,43.6681197 C84.3276032,48.5378115 83.1086809,52.1762195 82.7609295,53.0561195 C85.023106,55.5201274 86.3567505,58.6883433 86.3567505,62.5607672 C86.3567505,76.1732949 78.1799324,79.1650988 70.3501488,80.0457188 C71.6264322,81.1603548 72.7277644,83.2722587 72.7277644,86.6168867 C72.7277644,91.3692106 72.6704033,95.1833105 72.6704033,96.3562704 C72.6704033,97.2952144 73.3085451,98.4105704 75.048019,98.0584664 C88.9666784,93.3637465 99,80.1040428 99,64.4386552 C99.0572045,44.8410796 83.3409931,29 64.0289608,29 Z" id="symbol" fill="#FFFFFF"></path>
            </g>
        </g>
    </g>
</svg>