<?xml version="1.0" encoding="UTF-8"?>
<svg width="128px" height="128px" viewBox="0 0 128 128" version="1.1" xmlns="http://www.w3.org/2000/svg" xmlns:xlink="http://www.w3.org/1999/xlink">
    <title>icon-discord</title>
    <g id="Page-1" stroke="none" stroke-width="1" fill="none" fill-rule="evenodd">
        <g id="OAuth-SYMBOL" transform="translate(-98, -176)">
            <g id="icon-discord" transform="translate(98, 176)">
                <path d="M41.0221632,-1.81366828e-15 L86.9778368,0 C101.242137,0 106.414716,1.48520978 111.629531,4.27412326 C116.844346,7.06303674 120.936963,11.1556539 123.725877,16.3704687 C126.51479,21.5852836 128,26.7578634 128,41.0221632 L128,86.9778368 C128,101.242137 126.51479,106.414716 123.725877,111.629531 C120.936963,116.844346 116.844346,120.936963 111.629531,123.725877 C106.414716,126.51479 101.242137,128 86.9778368,128 L41.0221632,128 C26.7578634,128 21.5852836,126.51479 16.3704687,123.725877 C11.1556539,120.936963 7.06303674,116.844346 4.27412326,111.629531 C1.48520978,106.414716 0,101.242137 0,86.9778368 L0,41.0221632 C0,26.7578634 1.48520978,21.5852836 4.27412326,16.3704687 C7.06303674,11.1556539 11.1556539,7.06303674 16.3704687,4.27412326 C21.5852836,1.48520978 26.7578634,1.0537935e-15 41.0221632,-1.81366828e-15 Z" id="Rectangle" fill="#5865F2"></path>
                <path d="M73.8540948,38 C73.1700354,39.2130927 72.5557859,40.4680333 71.9974174,41.7508542 C66.6925852,40.956075 61.2900303,40.956075 55.9712693,41.7508542 C55.4268296,40.4680333 54.798596,39.2130927 54.1145919,38 C49.1308409,38.8505948 44.2727256,40.3425448 39.665937,42.448025 C30.536043,55.9594917 28.0651161,69.1223177 29.2936151,82.1038948 C34.640289,86.0499656 40.6291806,89.061801 47.008908,90.9860323 C48.4467815,89.061801 49.7171775,87.0120812 50.8060569,84.8787208 C48.7399498,84.1118219 46.7436526,83.1497063 44.8311494,82.0342219 C45.3336921,81.6716687 45.8223059,81.2952031 46.2969357,80.93265 C57.5068655,86.2033896 70.4897341,86.2033896 81.7135927,80.93265 C82.1882225,81.3230833 82.6768363,81.699549 83.179379,82.0342219 C81.2668758,83.1636187 79.2705786,84.1118219 77.1905427,84.8926885 C78.279422,87.026049 79.5497628,89.0757688 80.9876916,91 C87.3672532,89.0757688 93.3560895,86.0778458 98.7032055,82.1318302 C100.154676,67.0725979 96.2181286,54.0212927 88.3024734,42.4619927 C83.7098899,40.3565125 78.8517746,38.8645073 73.8680236,38.0278802 L73.8540948,38 Z M52.5067616,74 C48.9510953,74 46,70.8733593 46,67.0069911 C46,63.1406228 48.8359036,60 52.4923982,60 C56.1488928,60 59.0567271,63.1545497 58.9991598,67.0069911 C58.9415925,70.8594324 56.1344725,74 52.5067616,74 Z M75.4996051,74 C71.9254985,74 69,70.8733593 69,67.0069911 C69,63.1406228 71.8390516,60 75.4996051,60 C79.1601586,60 82.0568414,63.1545497 81.9991531,67.0069911 C81.9415219,70.8594324 79.1312859,74 75.4996051,74 L75.4996051,74 Z" id="symbol" fill="#FFFFFF" fill-rule="nonzero"></path>
            </g>
        </g>
    </g>
</svg>